<svg width="100" height="100" viewBox="0 0 100 100" fill="none" xmlns="http://www.w3.org/2000/svg">
<path d="M0 50C0 22.3858 22.3858 0 50 0C77.6142 0 100 22.3858 100 50C100 77.6142 77.6142 100 50 100C22.3858 100 0 77.6142 0 50Z" fill="#292524"/>
<path d="M90.3 28.5615C90.3 23.7938 85.8984 19.917 80.4868 19.917C78.8941 19.9134 77.3232 20.2596 75.8825 20.9304C76.002 20.6563 76.0635 20.3642 76.0708 20.0649C76.0708 16.967 72.5959 14.4462 68.3282 14.4462C64.0605 14.4462 60.5856 16.9671 60.5856 20.0902C60.5965 21.6301 62.153 22.8779 64.0605 22.8779H65.0668C64.9835 23.6641 64.8967 24.4755 64.8098 25.305V25.3086C64.3356 25.2437 63.8615 25.2112 63.3836 25.2076C60.7159 25.1824 58.1423 26.1813 56.1949 27.9953C56.0754 24.9119 55.9306 21.8212 55.7641 18.763H57.5559C59.8761 18.799 61.7909 16.9562 61.8344 14.6445C61.8344 9.87684 57.4328 6 52.0212 6C46.6134 6 42.2081 9.88044 42.2081 14.6878C42.2696 16.9851 44.1808 18.8063 46.4866 18.7667H48.6367C48.7091 20.0325 48.7959 21.6518 48.8901 23.5523C48.5751 23.5271 48.2566 23.5235 47.9381 23.5415C46.3563 23.61 44.8505 24.252 43.7031 25.3447C42.5955 26.3833 41.9982 27.8548 42.0742 29.3658C42.1937 30.8373 43.4353 31.966 44.9157 31.9444H45.0786L45.9147 31.8975V31.9011C45.9509 33.084 45.8242 34.2705 45.531 35.4174C43.58 35.4751 41.7122 36.2 40.2391 37.473C40.2391 36.8419 40.2608 36.2793 40.2897 35.8286L40.7096 35.8105V35.8069C42.1249 35.7709 43.247 34.6024 43.2217 33.1923C43.1456 31.977 42.5122 30.8663 41.5059 30.181C40.4345 29.4273 39.1422 29.0631 37.8355 29.1388C37.517 29.1532 37.2021 29.1929 36.8872 29.2542C36.9379 28.7241 36.9886 28.2336 37.0356 27.7864H39.3703C41.7195 27.7864 43.638 26.261 43.6488 24.3495C43.6488 20.4583 39.2472 17.2883 33.8356 17.2883C28.4279 17.2919 24.0299 20.4547 24.0299 24.382C24.0408 26.261 25.9592 27.7864 28.3084 27.7864H29.854C29.4523 31.6417 28.8767 38.4544 28.7863 46.3517V46.3337C28.0732 43.3981 24.801 41.6598 21.4926 42.4569H21.4962C20.9967 42.5831 20.5152 42.7634 20.0555 42.9978C20.1641 41.5914 20.2691 40.3579 20.3524 39.5032H22.0138C23.9178 39.5032 25.4743 38.2518 25.4779 36.7948H25.4815C25.4851 36.7551 25.4851 36.7191 25.4851 36.6794C25.4851 33.5815 22.0102 31.0643 17.7426 31.0643C13.4749 31.0643 10 33.5852 10 36.7083C10.0109 38.2482 11.5673 39.496 13.4749 39.496H14.4667C13.008 52.9512 11.0425 72.8663 24.8368 81.1606V81.1642C26.5127 82.1596 28.3297 82.8989 30.2265 83.3605C30.936 84.2909 31.6128 85.2575 32.2282 86.1915C29.5858 84.4712 27.6855 84.7994 27.5697 84.821C27.1752 84.9004 26.9218 85.2791 26.9978 85.6685C27.0738 86.0616 27.4539 86.3141 27.8484 86.2384C27.881 86.2384 31.2364 85.7515 35.2327 91.1502C35.2399 91.1575 35.2471 91.1611 35.2544 91.1683C35.6887 91.8932 36.4742 92.3367 37.3213 92.3439H37.4262C37.7882 92.3295 38.1393 92.2321 38.4579 92.0626C38.6823 91.94 38.885 91.7849 39.0587 91.5974C39.4533 91.9184 39.9383 92.1059 40.4487 92.1311H40.5645C41.2812 92.1311 41.9653 91.8102 42.4214 91.2548C42.8558 93.1301 44.7091 94.313 46.5985 93.9271C47.0257 93.8369 47.4311 93.671 47.7967 93.4366H47.8401C49.0201 93.4402 50.1205 92.856 50.7794 91.8823C51.4635 92.8199 52.7268 93.1337 53.7729 92.6216C54.0335 92.9642 54.3557 93.2563 54.7248 93.4799C56.2234 94.3887 58.1671 94.0713 59.2965 92.7334C60.1363 93.0255 61.0702 92.8199 61.7073 92.2032C61.805 92.1131 62.2864 91.6478 63.0103 90.8725C63.2022 90.8797 63.4049 90.8905 63.6003 90.8905H63.6039C66.7097 90.8869 69.7502 90.0033 72.3708 88.3444C74.7706 86.837 76.7868 84.7885 78.2601 82.3686C81.7857 78.5531 84.1638 73.8215 85.123 68.7223L86.3573 68.6682H86.3537C87.7689 68.6321 88.8911 67.4637 88.8657 66.05C88.7607 63.6878 86.3102 61.8738 83.4832 62H83.4579C84.3954 52.9697 84.6451 43.8816 84.1999 34.8154C84.1746 34.0292 84.1529 33.3296 84.1348 32.6769H86.017V32.6732C88.3372 32.7129 90.2493 30.8732 90.3 28.5615ZM88.8521 28.594C88.7906 30.0978 87.5309 31.2771 86.0179 31.2338H74.9528C73.4326 31.2735 72.1657 30.0762 72.1222 28.5615C72.1222 24.5909 75.8723 21.3596 80.4873 21.3596C85.0988 21.3596 88.8521 24.5909 88.8521 28.594ZM77.1644 36.088C77.2187 37.1303 77.2766 38.2699 77.3309 39.4924H77.3273C74.8659 38.6449 72.1475 39.0597 70.0516 40.596C70.019 39.3914 70.0009 38.4285 69.9901 37.8227C71.8434 37.3863 73.161 35.7526 73.1935 33.8556C73.1899 33.3003 73.1283 32.7485 73.0089 32.2075C73.6134 32.514 74.2794 32.6727 74.9527 32.6763H77.005C77.0376 33.6393 77.0955 34.7824 77.1607 36.0879L77.1644 36.088ZM73.751 65.0037C72.951 56.8713 74.7283 52.3019 75.8323 50.3289L77.4648 51.1187C77.1354 62.0212 75.2748 70.694 71.9158 77.0126H71.9122C73.4542 73.2079 74.084 69.0935 73.751 65.0037ZM78.5253 50.0261L70.5619 46.178L70.5583 46.1816C69.5303 45.702 69.0706 44.4975 69.5231 43.4624C70.8804 40.6747 74.6268 39.6866 77.8737 41.2518V41.2482C79.4193 41.973 80.65 43.228 81.3378 44.786C81.9676 46.1852 81.9531 47.7865 81.2943 49.1714C80.7514 50.1523 79.5243 50.5274 78.5216 50.0225L78.5253 50.0261ZM68.9151 65.469C69.5558 72.0074 66.3849 78.29 63.3589 82.6716C67.1849 67.8602 67.174 45.8466 67.0256 37.9705H68.5422C68.5567 38.8432 68.5893 40.3111 68.64 42.1106V42.1142C68.4807 42.3523 68.3323 42.6011 68.2056 42.8608C67.6264 44.105 67.8509 45.5764 68.7739 46.597C68.8716 49.5182 69.0345 54.1885 69.1612 55.2631C68.6255 58.6386 68.5423 62.0715 68.9151 65.469ZM70.363 50.6428C70.3268 49.7484 70.2942 48.7386 70.2544 47.6315L71.4489 48.2085H71.4526C71.0327 48.9947 70.6707 49.8098 70.3666 50.6428H70.363ZM70.6996 28.1177C70.6417 28.06 70.5838 28.0023 70.5222 27.9483C70.6707 25.9035 70.8227 24.0606 70.9385 22.8885H72.6V22.8849C72.7846 22.8849 72.9728 22.8668 73.1538 22.8416C71.7132 24.2408 70.8408 26.1198 70.7033 28.1177L70.6996 28.1177ZM62.0304 20.0647C62.0304 17.7638 64.8538 15.8885 68.3251 15.8885C71.7964 15.8885 74.6198 17.7602 74.6198 20.0828C74.6198 20.8076 73.6715 21.4424 72.5964 21.4424H64.0538C62.9824 21.4424 62.0376 20.8076 62.0304 20.0647ZM66.5152 22.8849H69.4869C69.3892 23.8802 69.2733 25.2903 69.1539 26.8771L69.1503 26.8807C68.2526 26.3001 67.2681 25.8637 66.2328 25.5861C66.3269 24.6592 66.4247 23.7576 66.5188 22.8849L66.5152 22.8849ZM63.3805 26.6535C67.9921 26.6535 71.7456 29.8848 71.7456 33.8879C71.6841 35.3917 70.4208 36.571 68.9114 36.5278H57.8491C56.3252 36.5674 55.0583 35.3701 55.0149 33.8555C55.0149 29.8848 58.7691 26.6535 63.3805 26.6535ZM54.8634 85.9242C55.3376 81.7588 56.1122 77.6331 57.18 73.5796C58.1935 69.2989 59.0695 65.5987 58.9934 63.208V63.2116C58.8667 60.4347 58.0305 57.7371 56.5646 55.3713L57.3609 54.8737C58.6858 54.0694 59.1092 52.3528 58.3093 51.0292C57.8785 50.3476 57.2849 49.7814 56.5826 49.3848C56.6007 45.681 56.5682 41.7753 56.4849 37.7474C56.9229 37.8953 57.3826 37.9746 57.846 37.9782H59.8911C60.0576 47.2715 60.0214 73.6058 54.8633 85.9254L54.8634 85.9242ZM52.2898 56.3484L50.9794 57.167H50.9758C50.3496 57.5782 49.5063 57.4159 49.0791 56.7992C47.8919 54.9166 48.7243 52.2623 50.9324 50.8775V50.8811C51.7649 50.3545 52.7241 50.0696 53.7087 50.0624C54.3313 50.0588 54.943 50.1922 55.5113 50.4447C55.5583 50.4735 55.6054 50.4952 55.6561 50.5096C56.2497 50.8017 56.7456 51.2525 57.1003 51.8079C57.4587 52.457 57.2379 53.272 56.6008 53.6543L55.1856 54.5415L52.2898 56.3484ZM49.5207 45.8937C49.528 47.2893 49.5316 48.6959 49.5243 50.1167C49.014 50.5207 48.5651 51.0003 48.1959 51.5341C48.4565 49.2008 48.7316 47.2966 48.956 45.8937H49.5207ZM47.2946 65.0037C47.3598 62.1871 47.4973 59.5869 47.6675 57.2319C47.729 57.3509 47.7905 57.4699 47.8593 57.5889H47.8629C48.214 58.1299 48.7534 58.5266 49.376 58.7033C49.2529 65.1731 48.7172 71.6323 47.7688 78.034C47.367 73.7027 47.2078 69.3528 47.2946 65.0037ZM43.6568 14.6478C43.6568 10.6771 47.4105 7.44581 52.0219 7.44581C56.6334 7.44581 60.387 10.6771 60.387 14.6802H60.3834C60.3255 16.184 59.0622 17.3633 57.5528 17.3237H46.4877C44.9747 17.3417 43.7184 16.1552 43.6568 14.6478ZM54.3095 18.7662C54.5086 22.3763 54.6787 26.0367 54.809 29.6715L54.8127 29.6679C54.0018 30.9301 53.5711 32.3979 53.5674 33.8945C53.5855 35.0666 54.1176 36.1774 55.0225 36.9275C55.1203 41.0352 55.1528 45.0202 55.1384 48.7994C53.7412 48.4712 52.2715 48.6263 50.9685 49.2321V45.8313C52.6299 45.5536 53.857 44.1327 53.8859 42.4558C53.8425 40.2234 52.7023 38.1533 50.8345 36.92C50.6426 29.1699 50.306 22.4834 50.0924 18.7655L54.3095 18.7662ZM44.9958 30.4978C44.2466 30.5591 43.5878 30.0073 43.5189 29.2608C43.4719 28.1717 43.9099 27.115 44.7099 26.3757C45.6076 25.5282 46.784 25.0305 48.0183 24.98C48.3332 24.9656 48.6481 24.9764 48.9594 25.0197C49.0318 26.6246 49.1078 28.3844 49.1765 30.2742L44.9958 30.4978ZM49.2273 31.7131C49.2779 33.1232 49.325 34.591 49.3612 36.1057C48.6083 35.7847 47.8192 35.5719 47.0083 35.4709C47.2798 34.2736 47.3993 33.0438 47.3595 31.8177L49.2273 31.7131ZM45.8862 36.8378C49.4951 36.8378 52.4343 39.3587 52.4343 42.4818L52.4307 42.4782C52.3727 43.5997 51.4353 44.4689 50.3095 44.4509H41.4557C40.3227 44.4689 39.3816 43.5817 39.3345 42.4529C39.3381 39.3586 42.2774 36.8378 45.8862 36.8378ZM19.4371 52.4718C19.4552 52.0859 19.4769 51.7037 19.5022 51.3178H19.5131V51.3142C19.7447 51.3142 19.9764 51.2889 20.2044 51.2312L20.6859 51.1122V51.1158C20.5555 52.9335 20.7546 54.7582 21.265 56.511C21.75 57.9031 22.3726 59.241 23.1255 60.5105C22.7346 60.7016 22.3654 60.9396 22.0287 61.2209C21.3989 61.7583 20.9464 62.476 20.7293 63.273C19.6905 59.7712 19.2524 56.1177 19.4371 52.4718ZM24.1825 50.2791V50.2755C23.9255 52.0318 24.0413 53.8243 24.5336 55.53C25.1055 57.0628 25.8367 58.5341 26.7091 59.919C26.3399 59.8649 25.967 59.8469 25.5942 59.8613C25.2287 59.8793 24.8667 59.9298 24.5083 60.0091C23.759 58.7722 23.1364 57.4595 22.6586 56.0962C22.1519 54.3651 21.9854 52.5548 22.1664 50.7624L24.1825 50.2791ZM23.1617 66.7607C23.1255 67.5433 23.111 68.4161 23.14 69.3393L22.2821 67.4603C22.1229 67.1069 21.9817 66.7463 21.8333 66.3892V66.3928C22.2351 66.6272 22.6948 66.7535 23.1617 66.7607ZM23.2594 65.3182H23.2558C22.6441 65.3614 22.1047 64.9178 22.0324 64.3083C22.0215 63.5329 22.3726 62.7937 22.9807 62.3103C23.7336 61.6828 24.6747 61.3294 25.652 61.3078C25.728 61.3078 25.8004 61.3042 25.8728 61.3042L25.8764 61.3006C26.7778 61.2862 27.661 61.5566 28.3994 62.0724C29.0546 62.5051 29.4708 63.2156 29.5251 63.9945C29.5034 64.604 29.0039 65.0873 28.3957 65.0909L23.2594 65.3182ZM28.0374 66.5515L28.4573 66.5335L28.4537 66.5299C28.6093 66.5227 28.765 66.501 28.917 66.4686C29.6192 70.3635 30.6472 74.1934 31.9829 77.9185C31.4182 77.3018 30.8137 76.7176 30.1767 76.1766C28.2582 74.5646 27.8274 70.1251 28.0374 66.5547L28.0374 66.5515ZM34.665 81.2005L34.5311 80.8218C32.9565 76.3751 31.02 70.8721 30.2634 65.7223C30.7376 65.2426 30.991 64.5862 30.9693 63.9119C30.9295 63.2375 30.705 62.5848 30.3214 62.0258C30.3105 61.1061 30.3214 60.0351 30.3322 58.9314C30.3431 57.561 30.3576 56.1653 30.3322 54.9428H31.3494C32.7683 59.1334 37.7201 74.5366 38.1291 86.4518C37.2748 85.0237 36.0622 83.0979 34.6686 81.2045L34.665 81.2005ZM31.9286 53.5071H29.8436C29.0943 53.5216 28.4681 52.9373 28.432 52.1908C28.432 49.9656 30.5568 48.1588 33.1629 48.1588C35.7691 48.1588 37.8939 49.9692 37.8939 52.2088C37.8505 52.9481 37.2279 53.5215 36.4823 53.507L31.9286 53.5071ZM36.4858 54.9497H36.4822C38.035 54.9713 39.3128 53.7379 39.3417 52.1908C39.2765 50.0306 37.9373 48.1119 35.9247 47.3005C35.9356 45.9878 35.9609 44.6534 36.0007 43.3083C36.4568 45.5514 37.6115 47.5962 39.3055 49.147C39.9426 49.6951 40.5398 50.2938 41.09 50.9321C40.6882 54.5854 40.3045 59.3169 40.1706 64.8416C40.1489 65.79 40.138 66.7529 40.1417 67.7267C38.8856 62.5515 37.4776 57.9783 36.4749 54.9491L36.4858 54.9497ZM38.8422 39.1356C38.2233 40.1454 37.8939 41.3067 37.8903 42.4895C37.941 44.4081 39.5372 45.9265 41.463 45.894H41.7417C41.6078 46.7703 41.463 47.8233 41.3109 49.0424C40.9417 48.6673 40.5834 48.3319 40.2396 48.0434C36.8733 45.216 36.7103 39.0744 36.866 35.9731L38.8388 35.8865C38.7808 36.9685 38.7807 38.0538 38.8422 39.1356ZM37.9048 30.5741C38.8785 30.5164 39.8486 30.7869 40.6521 31.3459C41.3036 31.7786 41.7198 32.4891 41.7741 33.268C41.756 33.8775 41.2565 34.3608 40.6447 34.368L35.5084 34.5952V34.5916C34.8966 34.6385 34.3537 34.1949 34.2849 33.5854C34.2741 32.8065 34.6252 32.0708 35.2369 31.5839C35.9861 30.9563 36.9238 30.603 37.9048 30.5741ZM25.4785 24.3459C25.4785 21.248 29.2321 18.7272 33.8436 18.7272C38.4551 18.7308 42.2086 21.2481 42.2086 24.3712C42.2014 25.4386 40.9056 26.3402 39.378 26.3402L28.313 26.3439C26.7855 26.3439 25.4857 25.4386 25.4785 24.3459ZM35.5844 27.7864C35.5229 28.3778 35.4541 29.0486 35.3854 29.7844C34.9872 29.9755 34.618 30.2135 34.2814 30.4948C33.333 31.2738 32.8009 32.4459 32.8407 33.6684C32.924 34.8117 33.7637 35.7565 34.893 35.9693C34.6541 39.6695 34.5166 43.3191 34.4804 46.8422C34.046 46.7593 33.6044 46.716 33.1628 46.7124C32.1456 46.7088 31.1394 46.936 30.2236 47.376C30.2706 38.9984 30.8932 31.742 31.3059 27.7822L35.5844 27.7864ZM28.7757 47.6248V48.3497V48.3461C27.6537 49.3235 27.0021 50.7299 26.984 52.2122C27.0093 53.3806 27.7695 54.4084 28.8843 54.7763C28.9133 56.0205 28.9024 57.4847 28.8843 58.92C28.8771 59.5187 28.8735 60.1101 28.8699 60.6763L28.8373 60.6546C27.6826 58.9056 26.7017 57.0483 25.9126 55.1116C25.4384 53.4167 25.3624 51.6351 25.6991 49.9076L26.651 49.6768V49.6804C27.6862 49.4352 28.5006 48.6455 28.7757 47.6248ZM21.8259 43.8598C22.2458 43.7588 22.6765 43.7047 23.1073 43.7047C25.0511 43.5965 26.8175 44.83 27.3785 46.6872C27.5125 47.4157 27.0419 48.119 26.318 48.2777L21.2902 49.493L21.2685 49.4966L19.8605 49.8356C19.1365 50.0268 18.3909 49.6048 18.1809 48.8872C17.9384 47.8234 18.1737 46.7053 18.8289 45.829C19.5564 44.8337 20.6205 44.1339 21.8259 43.8598ZM11.4373 36.6795C11.4373 34.3787 14.2607 32.507 17.732 32.507C21.2033 32.507 24.0267 34.3787 24.0267 36.6976C24.0267 37.4225 23.0784 38.0573 22.0033 38.0573L13.4607 38.0609C12.3894 38.0609 11.4445 37.4225 11.4373 36.6795ZM25.5872 79.9312C12.5271 72.0729 14.5073 52.5989 15.926 39.5037H18.8977C18.7928 40.6036 18.6588 42.2301 18.5249 44.0297C18.1991 44.3218 17.9096 44.6464 17.6562 44.9998C16.7512 46.2188 16.4363 47.7767 16.7874 49.2518C16.9684 49.9622 17.4354 50.5717 18.076 50.9323C18.0471 51.4192 18.0217 51.9097 17.9964 52.4001C17.7213 57.7808 18.7421 63.1474 20.9718 68.059L23.8495 74.3775C24.3309 76.4945 25.4494 78.413 27.0601 79.8772C27.5886 80.3316 28.0845 80.8184 28.5478 81.3377C27.5198 80.9627 26.5283 80.4901 25.5872 79.9312ZM37.7781 90.7903C37.5464 90.9129 37.2749 90.9381 37.0252 90.8624C36.7754 90.783 36.5691 90.6099 36.446 90.3755C35.9863 89.5316 31.8563 82.0267 27.9832 78.7742C24.6169 75.9468 24.454 69.8051 24.606 66.7038L26.5788 66.6173C26.4376 69.2608 26.481 74.9625 29.2429 77.2815C33.6118 80.9529 38.1292 89.3842 38.1763 89.471C38.1799 89.4818 38.1835 89.4926 38.1871 89.5034C38.426 89.9723 38.2414 90.5457 37.7745 90.7909L37.7781 90.7903ZM41.5426 89.7624C41.5172 90.2962 41.0648 90.7145 40.5254 90.6929C40.196 90.6784 39.8956 90.4981 39.7291 90.2132C39.7725 89.8454 39.7291 89.4703 39.5987 89.1205C39.9281 77.2449 34.9112 60.9905 32.8842 54.9535H34.9547V54.9571C37.445 62.3898 39.3526 70.003 40.6702 77.7277C40.7137 78.0018 40.7571 78.2795 40.7969 78.5499C40.8476 78.8889 40.8947 79.2315 40.9417 79.5706C41.0213 80.1476 41.0937 80.7246 41.1553 81.2836C41.177 81.4712 41.1987 81.6587 41.2168 81.8462C41.2856 82.5098 41.3507 83.1626 41.4014 83.8009C41.4086 83.8766 41.4123 83.956 41.4195 84.0317C41.4702 84.6881 41.5064 85.33 41.5353 85.9611C41.586 87.2593 41.5932 88.5363 41.5426 89.7624ZM46.3097 92.5141C45.1658 92.7449 44.051 92.0128 43.8121 90.8733C43.7433 90.5379 43.385 88.7203 42.9868 85.9938V85.9974C42.8384 82.7805 42.4873 79.5744 41.9371 76.4004C41.6403 72.4081 41.5281 68.5313 41.615 64.8784C41.7489 58.524 42.2774 52.184 43.2003 45.8949H47.4897C46.5232 52.2133 45.9767 58.5857 45.85 64.9726C45.7486 70.9411 46.0816 76.91 46.8454 82.8279V82.8496C47.0264 84.2813 47.2074 85.5436 47.3702 86.593H47.3666C46.2011 84.6275 45.564 82.3952 45.5206 80.116C45.6545 77.1588 45.1695 74.2051 44.0908 71.4499C43.9279 71.0856 43.4971 70.9197 43.1352 71.082C42.7696 71.2443 42.6031 71.6734 42.766 72.0377C43.7469 74.5982 44.1922 77.3319 44.0727 80.0691C43.9099 84.7502 47.2581 89.2654 47.9747 90.1776C48.1195 91.2703 47.3956 92.2906 46.3097 92.5141ZM49.3032 91.4106C49.4625 90.8696 49.4914 90.2962 49.3828 89.7408C49.372 89.6867 48.8254 86.9891 48.2933 82.7841C49.6543 77.3276 50.5049 69.2495 50.8307 58.7652C51.1529 58.6931 51.4642 58.5669 51.7465 58.3938L52.4596 57.9502V57.9466C53.4694 59.5802 54.0486 61.4412 54.15 63.3562C54.2006 65.116 53.3536 68.6973 52.4596 72.4911C51.0189 78.5895 49.4009 85.4376 50.1647 90.0362C49.9981 90.368 49.8316 90.689 49.6543 90.9811H49.6507C49.5529 91.1398 49.4371 91.2844 49.3032 91.4106ZM51.7827 90.7037C50.6316 86.4987 52.351 79.2316 53.8677 72.8198C54.7871 68.9321 55.6558 65.2608 55.5979 63.3095V63.3132C55.4893 61.1421 54.8305 59.0324 53.6867 57.1787L55.3482 56.1365V56.1401C56.6766 58.2859 57.4367 60.7347 57.5562 63.2555C57.6249 65.4553 56.7707 69.069 55.768 73.2919C54.3817 79.1631 52.6551 86.4665 53.6722 90.1917C53.741 90.4442 53.7084 90.711 53.5745 90.9346C53.4478 91.1582 53.2306 91.3241 52.9809 91.3926C52.4596 91.5261 51.9276 91.2195 51.7791 90.7038L51.7827 90.7037ZM55.4784 92.2509C55.2251 92.0886 55.0115 91.8722 54.8486 91.6162C55.1563 91.068 55.2359 90.4188 55.0694 89.813C55.0043 89.5714 54.9572 89.3297 54.921 89.0845C61.451 77.9014 61.5233 48.0652 61.3424 37.9715H65.581C65.7403 46.4429 65.7511 71.5505 60.9007 85.9151C60.108 86.8816 59.2647 87.8084 58.3741 88.692C57.4837 89.5358 57.3715 90.9134 58.1135 91.8945C57.4185 92.5977 56.3363 92.745 55.4784 92.2509ZM60.7125 91.1617C60.3143 91.5224 59.7026 91.5044 59.3262 91.1221C58.9569 90.729 58.975 90.1122 59.366 89.7408C60.3252 88.796 61.2301 87.797 62.0808 86.7547C62.0989 86.7331 62.117 86.7151 62.1351 86.6898C65.6643 82.4019 71.2241 74.1255 70.359 65.3326C69.5048 56.6268 71.358 51.4232 72.7588 48.8446L74.5252 49.6993C73.1859 52.1156 71.5028 56.9121 72.3136 65.145C73.0448 72.6138 69.6784 79.5272 66.3845 84.3566L66.3701 84.3746L66.3628 84.3891H66.3556C64.705 86.8269 62.8155 89.0954 60.7125 91.1617ZM71.6117 87.1226C69.4181 88.5111 66.8989 89.3045 64.3035 89.4307C65.4401 88.0999 66.5079 86.7079 67.4997 85.2617C67.4997 85.2545 67.5106 85.2545 67.5142 85.2509L67.5178 85.2473C68.9621 83.3539 70.9131 81.9078 73.15 81.0747C74.3373 80.6276 75.1228 79.4952 75.1228 78.233C75.1228 77.8363 74.797 77.5117 74.3988 77.5117C74.0007 77.5117 73.6749 77.8363 73.6749 78.233C73.6713 78.8929 73.2622 79.4844 72.6433 79.7188C72.3718 79.8162 72.0822 79.9424 71.7745 80.0794C76.1254 73.4906 78.4638 64.114 78.8873 51.6217C79.0827 51.6614 79.2818 51.683 79.4809 51.6866C80.8021 51.701 82.0147 50.9581 82.6047 49.7788C82.7133 49.5552 82.811 49.3244 82.8943 49.09C82.7712 58.3436 81.5478 67.551 79.2456 76.5202C78.138 80.8876 75.4124 84.6778 71.6117 87.1226ZM80.7116 76.6245C81.4102 74.0351 81.9749 71.4313 82.4418 68.8419L83.6328 68.7878C83.0464 71.5287 82.0617 74.1685 80.7116 76.6245ZM83.5495 63.4435C85.5837 63.3533 87.3502 64.5506 87.4225 66.1375V66.1339C87.4008 66.7434 86.9013 67.2266 86.2895 67.2302L82.6988 67.3889C82.916 66.0762 83.1042 64.7743 83.2707 63.476C83.3648 63.4652 83.4553 63.4435 83.5494 63.4399L83.5495 63.4435ZM82.7567 34.8704C82.8472 37.6112 82.9631 41.0806 82.9486 45.0222V45.0186C82.8689 44.7481 82.7748 44.4849 82.6662 44.2252C81.8916 42.4545 80.527 41.0011 78.804 40.114C78.7425 38.6317 78.6701 37.2505 78.6121 36.0135C78.547 34.7405 78.4891 33.6225 78.4565 32.6776H82.6915C82.706 33.3448 82.7313 34.0589 82.7567 34.8667L82.7567 34.8704Z" fill="white"/>
<path d="M44.3728 40.7963C43.486 40.7963 43.2217 39.6211 42.3784 40.2771C42.0978 40.4953 41.8415 40.2767 41.5489 40.5937C41.3563 40.8023 41.0677 41.5804 41.0677 41.2965C41.0677 40.8286 41.4037 40.6915 41.6376 40.3278C41.8494 39.9983 42.4346 39.1375 42.8912 39.0868C43.4998 39.0191 44.2843 38.6196 44.8287 38.3776C45.3949 38.126 46.3255 38.289 46.9371 38.289C47.5636 38.289 48.0796 38.2649 48.6467 38.5169C49.6062 38.9433 50.2059 39.6317 50.7614 40.5114C51.1766 41.1687 51.7331 41.4648 51.9011 42.2209C51.9268 42.3363 52.2457 42.9126 52.0531 42.9554C51.6298 43.0495 51.0976 42.9617 50.6665 42.9617C49.5479 42.9617 48.4293 42.9617 47.3107 42.9617C45.5526 42.9617 43.7945 42.9617 42.0365 42.9617C41.6858 42.9617 40.6118 43.0363 40.6118 42.6198C40.6118 42.3385 40.5156 41.8073 40.7448 41.6067C41.0922 41.3028 41.9463 41.2604 42.372 41.2522C44.6721 41.2079 51.574 41.2522 49.2735 41.2522" stroke="white" stroke-width="3.3" stroke-linecap="round"/>
<path d="M64.3961 17.0825C65.9634 17.0825 67.5307 17.0825 69.098 17.0825C70.5127 17.0825 71.5885 17.5816 72.9183 17.8771C73.2181 17.9437 73.3442 18.1894 73.7019 18.2689C74.3004 18.4019 73.9429 18.3732 73.7999 18.5519C73.1746 19.3335 73.0314 19.6294 71.9387 19.6294C70.6972 19.6294 69.1873 19.8253 67.8354 19.8253C66.9654 19.8253 66.2315 19.4335 65.3756 19.4335C64.5443 19.4335 63.7524 19.2651 62.9812 18.9981C62.0249 18.6671 61.7961 18.869 61.8492 19.8253C61.8864 20.4939 63.3839 21.0008 63.9172 21.0008C65.4307 21.0008 66.8181 20.8049 68.3252 20.8049C69.4644 20.8049 70.6036 20.8049 71.7428 20.8049C72.0862 20.8049 73.8549 20.8324 73.4081 20.609" stroke="white" stroke-width="3.3" stroke-linecap="round"/>
<path d="M25.6689 63.864C25.649 63.8591 23.895 62.4963 23.8125 62.8676C23.7428 63.1815 23.9684 63.9385 23.4363 63.9385C23.3266 63.9385 22.93 63.8153 22.9484 63.8061C23.125 63.7178 23.3303 63.9582 23.4941 63.9963C23.7221 64.0494 23.9855 64.0129 24.2177 64.0129C25.0859 64.0129 25.9935 63.8648 26.7853 63.5085C27.1384 63.3496 27.9261 63.3129 28.3068 63.4216C28.3922 63.446 28.3195 63.6325 28.4515 63.6325C28.4636 63.6325 28.2999 63.5663 28.2365 63.5663C27.9235 63.5663 28.2549 65.313 28.1084 64.385C28.0371 63.9334 27.8529 63.4081 27.8272 62.971C27.8082 62.6474 27.7145 62.7936 27.5254 62.6361C27.3679 62.5048 26.9528 62.504 26.7522 62.4128C26.5246 62.3093 26.3649 62.3011 26.1155 62.3011" stroke="white" stroke-width="3.3" stroke-linecap="round"/>
<path d="M83.7585 63.8267C83.6616 64.2202 83.3833 64.8249 83.4072 65.2318C83.4172 65.4023 83.6861 65.7498 83.8463 65.7587C84.415 65.7903 85.0084 65.8465 85.6027 65.8465C86.3669 65.8465 85.6605 65.278 85.4075 65.0756C84.9845 64.7372 85.1055 65.7543 85.1441 65.866C85.2253 66.1017 85.7783 66.4381 85.7783 66.0221" stroke="white" stroke-width="3.3" stroke-linecap="round"/>
<path d="M82.9726 67.1146C82.863 67.238 82.8433 67.6999 82.8433 67.5027" stroke="white" stroke-width="3.3" stroke-linecap="round"/>
</svg>
