<svg width="323" height="261" viewBox="0 0 323 261" fill="none" xmlns="http://www.w3.org/2000/svg">
<path d="M195.321 187C199.9 204.133 207.629 233.497 210.227 246.046C211.767 253.484 206.164 260.444 199.221 260.444H137.262C130.319 260.444 124.717 253.484 126.257 246.046C128.845 233.544 136.526 204.353 141.112 187.193" fill="#996130"/>
<path d="M321.402 174.093C322.287 166.778 322.662 159.308 322.492 151.715C320.617 68.0258 251.887 0.428582 168.307 0.00205935C82.316 -0.436563 12.4683 69.2479 12.4683 155.272C12.4683 161.649 12.8539 167.936 13.6009 174.111C15.8732 192.883 31.7278 207.03 50.6077 207.03H284.393C303.28 207.03 319.132 192.872 321.402 174.093Z" fill="#6A5A24"/>
<ellipse cx="97.5362" cy="48.6316" rx="37.7691" ry="36.7218" fill="#D9D9D9"/>
<ellipse cx="277.436" cy="33.7444" rx="24.8481" ry="24.812" fill="#D9D9D9"/>
<ellipse cx="298.92" cy="147.513" rx="21.9199" ry="22.5134" fill="#D9D9D9"/>
<ellipse cx="29.842" cy="123.068" rx="25.842" ry="25.8045" fill="#D9D9D9"/>
<ellipse cx="179.535" cy="159.293" rx="37.2722" ry="36.2256" fill="#D9D9D9"/>
<path d="M178.193 120.09C181.097 120.09 184.001 120.423 186.838 120.423C188.8 120.423 191.883 119.947 193.6 120.941C197.566 123.238 201.243 125.881 204.853 128.748C206.276 129.879 207.85 131.199 208.784 132.744C209.22 133.466 210.29 134.227 210.982 134.742C211.731 135.3 211.987 136.365 212.565 137.054C213.172 137.777 213.592 139.149 214.261 139.718C216.171 141.344 216.732 144.201 217.838 146.397C218.388 147.491 218.769 149.011 218.769 150.226C218.769 151.254 218.607 153.911 219.272 154.703C219.688 155.198 219.757 158.075 219.775 158.718C219.806 159.776 219.775 160.84 219.775 161.9C219.775 163.034 219.775 164.169 219.775 165.303C219.775 166.272 219.156 167.18 219.105 168.041C218.963 170.439 216.87 172.834 215.565 174.72C214.76 175.883 213.769 177.245 212.733 178.216C211.82 179.073 210.352 179.494 209.641 180.695C209.165 181.499 207.574 182.192 206.883 182.878C206.104 183.653 205.286 184.427 204.499 185.209C202.625 187.07 200.416 188.896 197.904 189.76C190.744 192.221 183.245 195.347 175.511 195.347C170.3 195.347 164.01 196.344 159.563 193.534C157.964 192.523 156.648 190.912 155.055 189.945C153.305 188.883 150.827 186.913 149.876 185.024C147.925 181.149 144.975 177.859 144.008 173.536C143.585 171.647 142.983 169.939 142.983 167.782C142.983 165.131 142.648 162.697 142.648 160.05C142.648 155.206 141.27 149.274 143.728 144.88C145.954 140.902 147.932 135.601 152.037 133.336C153.632 132.456 154.939 130.797 156.564 130.08C158.655 129.157 161.077 127.106 162.768 125.603C167.41 121.478 174.383 121.869 180.205 120.423" stroke="#292524" stroke-width="10" stroke-linecap="round"/>
<rect width="36.7706" height="16.8743" transform="matrix(0.956071 -0.293135 0.293915 0.955832 268.491 148.734)" fill="#D9D9D9"/>
<rect width="17.8774" height="34.2034" transform="matrix(0.699521 0.714612 -0.715628 0.698482 266.538 32.752)" fill="#D9D9D9"/>
<path d="M254.067 44.2587C254.017 44.6542 253.012 45.3533 252.736 45.6979C252.369 46.1559 251.99 46.5737 251.628 47.0265C250.572 48.3444 249.45 49.6183 248.474 50.9997C247.564 52.2862 246.665 53.8803 246.318 55.4405C246.126 56.3031 245.958 59.4359 246.638 59.9796C247.468 60.6426 247.728 62.482 248.967 62.6366C249.139 62.6581 250.363 63.4388 250.519 63.633C250.718 63.8822 252.503 64.3354 252.835 64.3957C255.348 64.852 258.216 63.7518 260.005 62.1446C261.147 61.1179 262.262 59.9949 263.503 59.0939C264.22 58.5732 264.835 58.1638 265.597 57.7162C266.062 57.4435 266.976 57.0089 267.371 56.6583C268.489 55.6658 271.17 56.2154 272.582 56.2154C275.609 56.2154 278.635 56.2154 281.661 56.2154C282.711 56.2154 284.181 56.4806 285.16 56.117C286.64 55.5673 287.773 54.6895 289.102 53.952C291.059 52.8664 292.508 51.4443 294.251 50.1387C295.696 49.0568 296.632 47.5894 297.861 46.3622C299.179 45.0464 299.613 42.9261 300.731 41.491C301.484 40.5245 301.698 38.3666 301.963 37.1979C302.173 36.272 302.185 35.4661 302.185 34.5162C302.185 32.7406 301.963 30.938 301.963 29.2021C301.963 27.5131 301.318 25.879 300.583 24.3309C299.947 22.9884 298.667 22.0716 297.922 20.7881C297.615 20.2583 296.976 19.9421 296.592 19.4596C296.333 19.1342 296.012 18.556 295.656 18.3525C294.994 17.975 294.377 17.1437 293.87 16.5811C292.329 14.8715 290.232 14.0947 288.215 13.0876C287.014 12.4878 285.398 12.9269 284.113 12.8047C282.685 12.6689 281.214 12.3741 279.801 12.3741C277.399 12.3741 274.997 12.3741 272.595 12.3741C270.986 12.3741 269.204 12.7231 267.889 13.6289C266.921 14.2952 265.841 14.9852 265.031 15.7939C264.573 16.2513 263.479 16.3649 263.158 16.9256C262.78 17.5869 261.711 17.9586 261.162 18.4755C260.524 19.0775 259.77 19.5217 259.167 20.1239C258.746 20.544 258.272 20.9662 257.787 21.3294C257.156 21.8016 257.083 22.9883 256.777 23.6666C256.452 24.3882 256.434 24.8218 256.272 25.5487C256.104 26.3046 255.397 26.974 255.397 27.7629C255.397 29.3931 254.288 30.9545 254.288 32.6218C254.288 33.9176 254.288 35.2133 254.288 36.509C254.288 37.5259 254.288 38.5428 254.288 39.5597C254.288 40.4494 253.845 41.1862 253.845 42.0445" stroke="#292524" stroke-width="10" stroke-linecap="round"/>
<path d="M268.986 161.918C268.599 161.856 268.142 160.301 268.142 159.853C268.142 159.247 268.001 158.582 268.001 157.927C268.001 156.245 267.933 154.431 268.907 153.118C269.437 152.404 269.793 151.872 270.478 151.401C271.456 150.729 272.556 150.401 273.517 149.705C274.164 149.237 275.039 149.163 275.736 148.717C276.54 148.204 277.507 147.869 278.338 147.46C280.314 146.49 282.086 145.188 282.737 142.382C282.935 141.529 283.031 140.579 283.19 139.718C283.391 138.626 283.72 137.389 283.753 136.275C283.774 135.54 284.454 134.757 284.737 134.17C285.234 133.138 286.456 131.708 287.339 131.207C287.664 131.022 287.856 130.567 288.144 130.309C288.529 129.962 288.961 129.696 289.331 129.331C290.046 128.625 290.764 127.973 291.55 127.425C292.609 126.687 293.626 125.801 294.793 125.469C297.468 124.71 300.037 125.1 302.739 125.1C304.39 125.1 305.386 125.946 306.896 126.497C308.139 126.951 309.041 127.924 310.193 128.513C310.746 128.795 311.52 129.509 311.943 130.049C312.436 130.678 313.099 131.138 313.56 131.825C314.677 133.489 315.147 135.278 315.709 137.353C315.947 138.229 316.403 139.032 316.584 139.927C316.796 140.968 316.858 142.078 317.116 143.1C317.349 144.026 317.523 145.059 317.639 146.023C317.72 146.692 317.624 147.648 317.819 148.268C318.148 149.319 317.928 150.826 317.928 151.95C317.928 153.426 317.819 154.884 317.787 156.35C317.757 157.748 316.995 160.383 316.311 161.549C314.472 164.68 311.993 166.739 309.208 168.423C306.562 170.025 303.767 170 300.84 170C300.131 170 299.647 169.899 298.973 169.601C298.146 169.235 297.247 169.665 296.418 169.202C295.633 168.763 294.74 168.975 294.098 168.284C293.929 168.102 293.479 168.157 293.246 168.024C292.943 167.852 292.663 167.486 292.402 167.226C291.646 166.476 290.553 166.131 289.863 165.33C289.009 164.34 287.488 164.386 286.534 163.714C285.923 163.283 285.088 163.609 284.456 163.724C283.532 163.893 282.669 164.22 281.706 164.253C279.343 164.334 277.007 165.51 274.627 165.51C273.488 165.51 272.537 166.408 271.447 166.408C270.852 166.408 270.412 166.528 269.986 165.969C269.288 165.055 268.142 163.875 268.142 162.457" stroke="#292524" stroke-width="10" stroke-linecap="round"/>
<rect width="57.0492" height="25.8474" transform="matrix(0.830991 0.556286 -0.557402 0.830243 108.962 45.6542)" fill="#D9D9D9"/>
<path d="M70.5099 74.8345C70.3635 73.6651 67.5356 72.5516 66.7048 71.722C65.7553 70.7739 65.2748 68.2375 64.3164 67.6394C63.696 67.2522 62.5031 64.576 62.1304 63.7387C61.422 62.147 60.5741 60.922 60.2886 59.2114C59.6507 55.3898 59.0608 51.4179 58.5074 47.5497C57.9622 43.7388 58.2789 40.0158 58.4872 36.272C58.8065 30.5326 63.8255 24.948 67.4132 20.649C69.4683 18.1863 71.9757 16.4165 74.2342 14.1612C75.3136 13.0834 76.6121 13.2015 77.6143 12.4231C79.1381 11.2396 81.1164 10.4424 83.0589 10.4424C86.0316 10.4424 88.5583 9.71484 91.4587 9.71484C94.434 9.71484 97.4093 9.71484 100.385 9.71484C106.677 9.71484 111.759 11.6099 117.326 14.0804C118.553 14.6252 120.163 15.3813 121.232 16.1823C121.962 16.7292 123.103 16.9558 123.904 17.4354C124.576 17.8381 125.067 18.7979 125.726 19.1736C126.825 19.8011 128.743 21.8005 129.531 22.8924C130.169 23.7775 130.971 24.2405 131.555 25.156C131.845 25.6108 132.512 26.3169 132.891 26.7325C137.132 31.3908 137.14 37.7499 136.817 43.5479C136.738 44.9783 135.595 46.517 134.834 47.7114C133.907 49.1654 133.626 50.8111 132.891 52.2791C131.875 54.3065 131.595 57.8252 132.101 60.1007C132.254 60.7852 133.383 61.9049 133.984 62.3845C135.169 63.3317 136.875 63.9044 138.092 64.8503C139.95 66.2929 142.259 67.0095 143.82 68.5691C145.575 70.3214 148.234 71.5309 149.65 73.2984C151.351 75.4216 154.305 77.9036 154.305 80.8573C154.305 82.4842 154.801 84.8894 153.576 86.1122C152.265 87.4212 150.469 88.0483 149.285 89.4672C148.438 90.4823 147.892 92.1812 146.836 93.0243C145.937 93.7424 144.741 93.7519 143.557 93.7519C140.886 93.7519 138.214 93.7519 135.542 93.7519C134.115 93.7519 133.26 93.1057 132.526 91.9329C131.831 90.8223 129.902 90.4326 129.247 89.3864C128.597 88.3475 126.448 87.7324 125.361 87.0419C123.992 86.1717 122.791 85.5423 121.435 84.657C118.896 82.9998 115.752 81.6691 112.913 81.0392C109.994 80.3914 106.701 81.2939 103.886 81.7264C100.581 82.2342 97.6305 82.838 94.1911 82.838C91.9497 82.838 89.8557 82.7693 87.6535 82.4944C84.2224 82.0662 80.961 80.6905 77.6143 79.9478C73.6004 79.0572 69.8409 76.7726 67.9597 73.0155" stroke="#292524" stroke-width="10" stroke-linecap="round"/>
<rect x="41.8765" y="115.128" width="27.8299" height="19.8496" fill="#D9D9D9"/>
<path d="M52.9012 111.631C52.9012 112.888 55.4661 114.472 56.6168 114.599C58.9304 114.856 61.0593 115.341 63.4907 115.341C64.5434 115.341 65.5962 115.341 66.649 115.341C67.6894 115.341 68.1732 115.906 69.0641 116.104C70.034 116.319 73.2017 119.083 73.337 120.165C73.5713 122.036 74.8233 123.592 74.8233 125.73C74.8233 127.765 73.5118 129.363 71.665 130.182C69.6112 131.094 69.3438 132.408 66.8347 132.408C65.7545 132.408 64.6742 132.408 63.5939 132.408C62.1436 132.408 61.2504 133.15 59.8783 133.15C54.6433 133.15 53.3872 139.271 49.3714 141.498C47.8451 142.345 46.1905 144.526 44.5204 145.002C42.7746 145.501 40.9925 146.831 39.3186 147.62C37.9255 148.277 36.3739 148.266 35.0663 148.816C31.9946 150.107 25.2275 150.182 22.619 148.156C19.7129 145.899 15.6372 145.085 13.4332 141.684C13.0368 141.072 12.0665 140.304 11.4722 139.829C11.2497 139.651 10.2138 138.701 10.1717 138.345C10.0439 137.26 8.58911 136.706 8.33457 135.562C8.13738 134.676 7.44398 134.098 7.21988 133.315C6.6758 131.414 6.08456 130.084 6.08456 128.142C6.08456 126.101 6.08456 124.06 6.08456 122.02C6.08456 117.831 5.15061 112.089 8.87126 109.199C11.9961 106.772 14.8193 103.274 18.6351 101.902C22.6762 100.449 26.4586 99.7585 30.7933 99.7585C34.5002 99.7585 39.0215 99.1305 42.1259 100.954C43.5798 101.808 44.7973 103.374 45.9241 104.499C46.2461 104.821 47.14 105.829 47.3278 106.251C47.4868 106.609 48.3337 108.057 48.6283 108.292C49.3242 108.848 49.0682 109.775 49.9287 110.229C50.6272 110.599 51.3867 111.273 51.9517 111.837C52.6473 112.532 52.7081 112.97 54.0159 113.115C55.1371 113.24 56.1568 113.486 57.3599 113.486" stroke="#292524" stroke-width="10" stroke-linecap="round"/>
</svg>
