<svg width="342" height="266" viewBox="0 0 342 266" fill="none" xmlns="http://www.w3.org/2000/svg">
<path d="M194.852 192C199.459 209.263 207.236 238.85 209.85 251.493C211.399 258.988 205.762 266 198.777 266H136.439C129.453 266 123.817 258.988 125.366 251.493C127.97 238.897 135.699 209.485 140.312 192.195" fill="#996130"/>
<path d="M322.342 175.412C323.233 168.042 323.61 160.515 323.439 152.864C321.552 68.5412 252.403 0.431768 168.312 0.00201391C81.7949 -0.439932 11.5203 69.7725 11.5203 156.449C11.5203 162.874 11.9082 169.208 12.6598 175.43C14.946 194.344 30.8975 208.598 49.8929 208.598H285.107C304.11 208.598 320.058 194.333 322.342 175.412Z" fill="#6A5A24"/>
<ellipse cx="97.1079" cy="49" rx="38" ry="37" fill="#D9D9D9"/>
<circle cx="278.108" cy="34" r="25" fill="#D9D9D9"/>
<ellipse cx="312.162" cy="144.684" rx="22.0539" ry="22.684" fill="#D9D9D9"/>
<circle cx="29" cy="124" r="26" fill="#D9D9D9"/>
<ellipse cx="179.608" cy="160.5" rx="37.5" ry="36.5" fill="#D9D9D9"/>
<path d="M178.258 121C181.18 121 184.101 121.336 186.955 121.336C188.93 121.336 192.032 120.855 193.759 121.857C197.749 124.172 201.449 126.834 205.081 129.723C206.513 130.863 208.096 132.193 209.035 133.75C209.474 134.477 210.551 135.244 211.247 135.763C212.001 136.325 212.258 137.398 212.84 138.093C213.451 138.821 213.873 140.203 214.546 140.777C216.468 142.415 217.033 145.293 218.145 147.506C218.699 148.608 219.082 150.139 219.082 151.364C219.082 152.399 218.919 155.077 219.588 155.875C220.006 156.374 220.076 159.273 220.094 159.92C220.125 160.987 220.094 162.059 220.094 163.126C220.094 164.269 220.094 165.413 220.094 166.556C220.094 167.532 219.471 168.447 219.42 169.314C219.277 171.73 217.172 174.143 215.858 176.043C215.048 177.216 214.052 178.587 213.009 179.566C212.09 180.43 210.613 180.854 209.898 182.064C209.419 182.874 207.819 183.572 207.124 184.264C206.339 185.044 205.517 185.824 204.724 186.612C202.839 188.487 200.617 190.327 198.089 191.198C190.886 193.677 183.34 196.827 175.559 196.827C170.317 196.827 163.988 197.832 159.514 195C157.905 193.982 156.581 192.358 154.978 191.384C153.218 190.314 150.725 188.329 149.768 186.426C147.805 182.522 144.837 179.207 143.863 174.851C143.438 172.947 142.833 171.226 142.833 169.054C142.833 166.382 142.495 163.93 142.495 161.262C142.495 156.382 141.109 150.405 143.582 145.977C145.821 141.969 147.812 136.628 151.942 134.346C153.547 133.459 154.861 131.788 156.497 131.066C158.601 130.136 161.037 128.069 162.738 126.555C167.409 122.399 174.425 122.792 180.283 121.336" stroke="#292524" stroke-width="10" stroke-linecap="round"/>
<rect x="269.108" y="149.86" width="37" height="17" transform="rotate(-17.0691 269.108 149.86)" fill="#D9D9D9"/>
<rect x="267.143" y="33" width="18" height="34.4369" transform="rotate(45.653 267.143 33)" fill="#D9D9D9"/>
<path d="M254.595 44.594C254.546 44.9925 253.535 45.6968 253.257 46.0441C252.888 46.5055 252.506 46.9265 252.141 47.3827C251.079 48.7106 249.951 49.9942 248.968 51.3861C248.053 52.6823 247.149 54.2885 246.799 55.8604C246.606 56.7296 246.437 59.8861 247.122 60.4339C247.957 61.102 248.218 62.9553 249.464 63.1111C249.638 63.1328 250.869 63.9194 251.026 64.115C251.227 64.3661 253.022 64.8227 253.356 64.8835C255.885 65.3432 258.77 64.2347 260.569 62.6153C261.719 61.5808 262.841 60.4493 264.089 59.5415C264.811 59.0169 265.43 58.6044 266.196 58.1534C266.664 57.8786 267.584 57.4407 267.981 57.0874C269.106 56.0875 271.803 56.6413 273.224 56.6413C276.269 56.6413 279.314 56.6413 282.359 56.6413C283.414 56.6413 284.894 56.9084 285.879 56.5421C287.367 55.9882 288.507 55.1038 289.845 54.3607C291.814 53.2669 293.272 51.8339 295.026 50.5185C296.479 49.4284 297.421 47.9499 298.657 46.7134C299.983 45.3876 300.42 43.2512 301.545 41.8052C302.302 40.8315 302.518 38.6572 302.785 37.4796C302.996 36.5468 303.008 35.7347 303.008 34.7776C303.008 32.9885 302.785 31.1723 302.785 29.4233C302.785 27.7215 302.135 26.075 301.396 24.5151C300.756 23.1625 299.468 22.2387 298.719 20.9456C298.41 20.4118 297.767 20.0932 297.381 19.607C297.12 19.2792 296.797 18.6965 296.439 18.4915C295.773 18.1111 295.152 17.2735 294.641 16.7067C293.091 14.9841 290.982 14.2014 288.952 13.1867C287.744 12.5823 286.118 13.0247 284.825 12.9016C283.389 12.7648 281.909 12.4678 280.487 12.4678C278.07 12.4678 275.653 12.4678 273.236 12.4678C271.618 12.4678 269.825 12.8194 268.502 13.7321C267.528 14.4034 266.441 15.0987 265.626 15.9135C265.165 16.3744 264.065 16.4888 263.742 17.0537C263.362 17.7201 262.286 18.0946 261.735 18.6154C261.092 19.222 260.333 19.6696 259.727 20.2763C259.303 20.6995 258.826 21.125 258.338 21.4909C257.704 21.9668 257.63 23.1624 257.322 23.8458C256.995 24.5729 256.977 25.0098 256.814 25.7422C256.645 26.5039 255.934 27.1783 255.934 27.9732C255.934 29.6157 254.818 31.189 254.818 32.8689C254.818 34.1745 254.818 35.48 254.818 36.7855C254.818 37.8101 254.818 38.8347 254.818 39.8593C254.818 40.7558 254.372 41.4981 254.372 42.363" stroke="#292524" stroke-width="10" stroke-linecap="round"/>
<path d="M270.131 159.944C269.612 159.879 268.997 158.242 268.997 157.77C268.997 157.132 268.808 156.433 268.808 155.743C268.808 153.972 268.716 152.063 270.026 150.68C270.738 149.929 271.217 149.369 272.138 148.873C273.452 148.166 274.931 147.82 276.224 147.088C277.093 146.595 278.269 146.517 279.207 146.048C280.287 145.508 281.587 145.154 282.704 144.724C285.361 143.703 287.743 142.333 288.618 139.378C288.884 138.48 289.014 137.481 289.227 136.574C289.498 135.424 289.94 134.123 289.984 132.95C290.012 132.176 290.927 131.351 291.307 130.734C291.976 129.647 293.617 128.142 294.805 127.614C295.241 127.42 295.5 126.941 295.887 126.669C296.405 126.304 296.986 126.024 297.483 125.639C298.444 124.897 299.408 124.21 300.466 123.633C301.89 122.857 303.256 121.923 304.825 121.574C308.422 120.775 311.875 121.186 315.508 121.186C317.726 121.186 319.066 122.076 321.096 122.656C322.767 123.134 323.979 124.158 325.528 124.778C326.272 125.075 327.312 125.827 327.881 126.395C328.543 127.058 329.435 127.542 330.055 128.265C331.556 130.016 332.187 131.9 332.944 134.084C333.263 135.007 333.876 135.852 334.12 136.794C334.404 137.89 334.488 139.058 334.834 140.134C335.148 141.109 335.382 142.196 335.538 143.212C335.646 143.916 335.519 144.922 335.78 145.575C336.222 146.682 335.927 148.268 335.927 149.451C335.927 151.005 335.781 152.54 335.738 154.083C335.697 155.554 334.673 158.329 333.753 159.556C331.281 162.852 327.948 165.02 324.205 166.793C320.646 168.478 316.89 168.452 312.955 168.452C312.001 168.452 311.351 168.346 310.445 168.032C309.333 167.647 308.124 168.1 307.01 167.612C305.955 167.15 304.755 167.374 303.89 166.646C303.664 166.455 303.059 166.512 302.746 166.373C302.338 166.192 301.962 165.806 301.611 165.532C300.595 164.742 299.125 164.38 298.197 163.537C297.05 162.494 295.006 162.543 293.723 161.835C292.901 161.381 291.778 161.724 290.929 161.846C289.687 162.023 288.526 162.367 287.232 162.402C284.056 162.488 280.915 163.726 277.715 163.726C276.184 163.726 274.906 164.671 273.44 164.671C272.641 164.671 272.049 164.797 271.476 164.209C270.539 163.246 268.997 162.005 268.997 160.512" stroke="#292524" stroke-width="10" stroke-linecap="round"/>
<rect x="108.603" y="46" width="57.4237" height="26.0315" transform="rotate(33.8378 108.603 46)" fill="#D9D9D9"/>
<path d="M69.9165 75.4014C69.7692 74.2231 66.9239 73.1012 66.088 72.2653C65.1327 71.31 64.6493 68.7544 63.6851 68.1518C63.0608 67.7616 61.8607 65.0651 61.4857 64.2215C60.773 62.6178 59.9199 61.3835 59.6326 59.66C58.9908 55.8094 58.3974 51.8074 57.8406 47.9099C57.292 44.0701 57.6106 40.3189 57.8202 36.5468C58.1415 30.7638 63.1911 25.1369 66.8008 20.8053C68.8685 18.3241 71.3911 16.5408 73.6634 14.2685C74.7495 13.1824 76.0559 13.3014 77.0642 12.5172C78.5974 11.3247 80.5877 10.5215 82.5422 10.5215C85.533 10.5215 88.0752 9.78839 90.9932 9.78839C93.9868 9.78839 96.9803 9.78839 99.9738 9.78839C106.305 9.78839 111.418 11.6978 117.019 14.187C118.254 14.736 119.873 15.4977 120.949 16.3049C121.683 16.8559 122.831 17.0842 123.637 17.5675C124.313 17.9731 124.807 18.9402 125.47 19.3188C126.576 19.9511 128.506 21.9656 129.298 23.0658C129.94 23.9576 130.747 24.4241 131.334 25.3465C131.626 25.8047 132.298 26.5162 132.678 26.9349C136.945 31.6286 136.954 38.0358 136.629 43.8778C136.549 45.319 135.399 46.8694 134.633 48.0728C133.701 49.5378 133.418 51.196 132.678 52.6751C131.657 54.7179 131.375 58.2632 131.884 60.556C132.038 61.2456 133.174 62.3738 133.778 62.8571C134.971 63.8114 136.687 64.3885 137.912 65.3415C139.781 66.7951 142.104 67.5171 143.675 69.0885C145.441 70.8541 148.115 72.0728 149.54 73.8537C151.251 75.993 154.224 78.4937 154.224 81.4698C154.224 83.109 154.723 85.5325 153.491 86.7645C152.172 88.0834 150.365 88.7152 149.173 90.1449C148.321 91.1677 147.771 92.8795 146.709 93.729C145.805 94.4526 144.601 94.4621 143.41 94.4621C140.722 94.4621 138.034 94.4621 135.346 94.4621C133.911 94.4621 133.05 93.811 132.312 92.6293C131.612 91.5103 129.672 91.1177 129.013 90.0635C128.359 89.0168 126.196 88.397 125.103 87.7012C123.725 86.8245 122.517 86.1903 121.152 85.2983C118.599 83.6285 115.435 82.2877 112.579 81.6531C109.642 81.0004 106.329 81.9098 103.497 82.3455C100.171 82.8571 97.2029 83.4655 93.7424 83.4655C91.4873 83.4655 89.3804 83.3963 87.1648 83.1193C83.7128 82.6878 80.4314 81.3017 77.0642 80.5535C73.0258 79.656 69.2434 77.3542 67.3506 73.5686" stroke="#292524" stroke-width="10" stroke-linecap="round"/>
<rect x="41.1079" y="116" width="28" height="20" fill="#D9D9D9"/>
<path d="M52.2 112.477C52.2 113.743 54.7806 115.339 55.9383 115.467C58.266 115.726 60.408 116.215 62.8542 116.215C63.9134 116.215 64.9726 116.215 66.0318 116.215C67.0786 116.215 67.5653 116.784 68.4617 116.984C69.4375 117.2 72.6246 119.985 72.7608 121.075C72.9964 122.96 74.2561 124.528 74.2561 126.682C74.2561 128.733 72.9366 130.343 71.0785 131.168C69.0121 132.087 68.7431 133.411 66.2187 133.411C65.1318 133.411 64.0449 133.411 62.9581 133.411C61.4989 133.411 60.6002 134.159 59.2197 134.159C53.9527 134.159 52.6889 140.326 48.6486 142.57C47.113 143.423 45.4483 145.621 43.768 146.101C42.0115 146.603 40.2184 147.943 38.5344 148.739C37.1327 149.4 35.5717 149.389 34.2561 149.943C31.1656 151.244 24.3571 151.32 21.7327 149.279C18.8088 147.004 14.7082 146.184 12.4907 142.757C12.0919 142.141 11.1157 141.366 10.5177 140.888C10.2938 140.709 9.2516 139.752 9.20931 139.393C9.08075 138.3 7.61702 137.741 7.36092 136.589C7.16253 135.696 6.46489 135.114 6.23942 134.325C5.69202 132.409 5.09716 131.069 5.09716 129.112C5.09716 127.056 5.09716 125 5.09716 122.944C5.09716 118.724 4.1575 112.938 7.9009 110.026C11.0449 107.581 13.8853 104.056 17.7244 102.674C21.7902 101.21 25.5957 100.514 29.957 100.514C33.6865 100.514 38.2354 99.8814 41.3589 101.719C42.8216 102.579 44.0466 104.157 45.1803 105.291C45.5042 105.615 46.4036 106.631 46.5925 107.056C46.7525 107.416 47.6046 108.875 47.9009 109.112C48.6011 109.672 48.3436 110.606 49.2093 111.065C49.9121 111.437 50.6763 112.116 51.2447 112.685C51.9445 113.384 52.0057 113.826 53.3215 113.972C54.4495 114.097 55.4755 114.346 56.686 114.346" stroke="#292524" stroke-width="10" stroke-linecap="round"/>
</svg>
