<svg width="329" height="261" viewBox="0 0 329 261" fill="none" xmlns="http://www.w3.org/2000/svg">
<path d="M199.745 187C204.352 204.263 212.128 233.85 214.742 246.493C216.291 253.988 210.655 261 203.669 261H141.331C134.345 261 128.709 253.988 130.258 246.493C132.862 233.897 140.591 204.485 145.204 187.195" fill="#996130"/>
<path d="M327.234 175.412C328.125 168.042 328.503 160.515 328.331 152.864C326.444 68.5412 257.295 0.431798 173.204 0.00204443C86.687 -0.439901 16.4124 69.7725 16.4124 156.449C16.4124 162.874 16.8003 169.208 17.5519 175.43C19.8381 194.344 35.7896 208.598 54.785 208.598H289.999C309.002 208.598 324.95 194.333 327.234 175.412Z" fill="#6A5A24"/>
<ellipse cx="116.392" cy="62" rx="33.5" ry="34" fill="#D9D9D9"/>
<path d="M127.162 33.0738C129.805 33.0738 131.712 35.39 134.175 35.39C135.481 35.39 136.529 35.46 137.456 36.3873C138.182 37.1126 139.631 38.0214 140.127 38.8644C140.625 39.7112 141.427 40.1325 142.057 40.7624C142.387 41.093 142.566 41.9842 143.086 42.0492C143.366 42.0842 144.162 42.9302 144.309 43.2073C144.785 44.1066 145.629 44.7736 146.126 45.6684C146.695 46.6924 147.137 47.6736 147.654 48.7084C147.99 49.3801 147.829 51.1126 148.443 51.6038C149.053 52.0918 149.414 54.0398 149.456 54.7886C149.491 55.416 150.035 55.5521 150.035 56.3649C150.035 57.0389 150.325 57.6791 150.325 58.4077C150.325 59.5176 150.325 60.6275 150.325 61.7374C150.325 64.0536 150.325 66.3699 150.325 68.6861C150.325 71.1138 149 72.6803 148.073 74.7663C147.239 76.642 146.427 78.4543 145.467 80.2674C144.613 81.8799 142.94 83.5894 141.703 84.9642C141.148 85.5805 140.737 86.6635 140.046 87.2161C139.691 87.5002 139.043 87.9742 138.808 88.3742C138.503 88.8922 137.919 88.8123 137.649 89.2428C137.33 89.7547 136.882 89.3147 136.7 89.9506C136.565 90.4233 135.831 90.4951 135.558 90.8353C134.882 91.6802 133.763 91.5309 133.017 92.2025C132.322 92.8276 130.822 92.8562 129.929 93.425C129.187 93.8972 128.071 94.4544 127.162 94.4544C126.071 94.4544 125.243 95.0335 124.122 95.0335C123.149 95.0335 122.091 95.5594 121.082 95.6125C116.567 95.8501 112.015 96.1916 107.329 96.1916C106.102 96.1916 105.193 95.9021 103.999 95.9021C102.635 95.9021 101.565 95.1237 100.236 94.7439C99.2214 94.4542 98.0103 93.732 97.2759 93.0711C96.9649 92.7911 96.4342 92.8099 96.0535 92.7011C95.5464 92.5563 95.4407 91.6575 95.1527 91.5752C92.957 90.9478 91.9415 88.6303 89.9733 87.5056C88.2657 86.5299 86.963 84.3127 86.0485 82.7123C85.485 81.7261 84.0868 80.5676 84.0218 79.3988C83.9876 78.7829 83.5654 78.5094 83.3141 77.935C83.0075 77.2343 83.022 76.4302 82.7189 75.7635C82.2615 74.7571 81.9951 73.5161 81.9951 72.45C81.9951 72.095 81.7955 69.7424 81.5608 69.5547C80.376 68.6068 81.1265 63.9258 81.1265 62.4612C81.1265 60.056 81.416 57.5343 81.416 55.2229C81.416 54.4548 81.8938 52.5266 82.349 51.9576C82.8598 51.319 82.6707 50.0917 83.3141 49.4484C83.9542 48.8082 84.3963 47.5413 84.8261 46.6817C85.2968 45.7403 86.1858 44.9251 86.6276 43.9312C87.3753 42.2488 89.4768 39.7915 91.0993 38.8644C92.835 37.8725 94.703 35.7143 96.7451 35.3739C97.2893 35.2832 97.7055 34.5806 98.2089 34.5214C98.9527 34.4339 99.5944 34.0378 100.236 33.7172C101.506 33.0819 103.598 32.4755 104.997 32.2212C107.682 31.733 110.833 32.2052 113.57 32.2052C116.026 32.2052 118.481 32.2052 120.937 32.2052C123.331 32.2052 125.446 33.0738 127.741 33.0738" stroke="#292524" stroke-width="10" stroke-linecap="round"/>
<circle cx="238.892" cy="32" r="25" fill="#D9D9D9"/>
<path d="M220.751 48.5262C220.751 49.8345 222.305 50.7659 223.332 51.3937C223.772 51.6627 224.231 52.1577 224.609 52.5146C225.025 52.9073 226.206 53.0883 226.76 53.2184C228.41 53.6067 229.765 54.1465 231.361 54.6782C232.655 55.1096 234.292 56.0338 235.662 56.0338C238.875 56.0338 242.091 56.2684 245.333 56.2684C246.661 56.2684 247.995 56.3175 249.321 56.2684C250.188 56.2363 250.847 55.5108 251.602 55.343C253.098 55.0107 254.458 54.091 255.838 53.4009C258.878 51.8813 260.712 48.1131 261.599 45.007C261.795 44.322 262.365 43.7329 262.525 43.0128C262.676 42.3345 262.874 41.696 263.033 41.0187C263.376 39.5636 263.45 38.1861 263.45 36.6783C263.45 33.0072 263.65 29.2131 262.277 25.8211C262.131 25.4593 261.703 23.6208 261.469 23.4749C261.052 23.2142 260.511 22.2141 260.413 21.6763C260.225 20.64 258.965 19.6638 258.471 18.7306C257.93 17.7088 257.154 17.1019 256.594 16.1499C255.831 14.8515 253.608 14.4558 252.893 13.2042C252.595 12.6824 251.604 12.0722 251.133 11.601C250.796 11.2636 249.599 10.5734 249.139 10.5192C248.589 10.4544 248.072 9.88307 247.497 9.81535C247.092 9.76775 246.429 9.66923 245.972 9.5677C242.143 8.71688 237.587 9.34613 233.655 9.34613C230.095 9.34613 226.194 10.4805 223.566 12.9696C222.997 13.5094 222.521 13.994 221.976 14.5597C220.914 15.6623 219.49 16.4639 218.64 17.74C217.411 19.5822 215.266 21.3948 214.547 23.5531C213.509 26.6663 213.947 30.3199 213.947 33.6284C213.947 34.8009 214.404 36.2116 214.664 37.3822C214.84 38.1722 215.397 38.495 215.72 39.1418C216.038 39.7787 216.39 40.3773 216.711 41.0187C216.992 41.5821 217.241 42.2639 217.649 42.7131C218.038 43.1409 217.695 44.0167 218.053 44.3032C218.27 44.4768 218.114 44.8008 218.405 44.9549C218.633 45.0756 218.934 44.9061 219.109 45.1243C219.481 45.5896 219.962 45.4763 220.516 45.4763" stroke="#292524" stroke-width="10" stroke-linecap="round"/>
<ellipse cx="293.392" cy="145" rx="17.5" ry="18" fill="#D9D9D9"/>
<path d="M287.241 127.883C284.996 127.883 282.443 129.16 280.942 130.749C279.532 132.242 279.06 134.213 278.176 135.982C276.003 140.327 274.943 145.824 274.943 150.68C274.943 152.044 275.097 153.054 275.71 154.279C276.232 155.323 277.223 156.06 277.709 156.979C278.961 159.343 281.506 159.933 283.342 161.478C285.295 163.123 288.536 162.678 290.908 162.678C293.199 162.678 295.795 162.888 297.907 161.928C299.537 161.187 301.474 161.003 303.139 160.145C304.655 159.364 306.258 158.504 307.605 157.445C308.66 156.617 309.288 155.937 310.038 154.812C310.69 153.835 311.689 152.439 311.855 151.28C312.086 149.658 313.287 148.374 313.338 146.614C313.392 144.718 313.338 142.812 313.338 140.914C313.338 137.415 312.536 134.966 310.321 132.382C309.418 131.328 308.279 130.542 307.339 129.549C306.494 128.658 305.337 128.281 304.489 127.433C302.745 125.689 299.453 123.983 296.99 123.983C295.718 123.983 294.446 123.983 293.174 123.983C291.628 123.983 290.379 124.366 288.874 124.567C286.455 124.889 284.231 125.463 282.042 126.683C280.155 127.735 277.321 129.105 275.843 130.583" stroke="#292524" stroke-width="10" stroke-linecap="round"/>
<circle cx="33.8921" cy="124" r="26" fill="#D9D9D9"/>
<ellipse cx="182.392" cy="156" rx="32.5" ry="32" fill="#D9D9D9"/>
<path d="M181.225 123.056C183.658 123.056 186.091 123.337 188.469 123.337C190.113 123.337 192.697 122.935 194.136 123.774C197.459 125.713 200.54 127.942 203.565 130.362C204.758 131.317 206.077 132.431 206.859 133.734C207.224 134.344 208.121 134.986 208.701 135.42C209.329 135.892 209.543 136.79 210.028 137.372C210.536 137.982 210.888 139.14 211.449 139.62C213.049 140.992 213.52 143.403 214.446 145.256C214.908 146.179 215.227 147.461 215.227 148.487C215.227 149.354 215.091 151.597 215.648 152.265C215.996 152.683 216.054 155.111 216.07 155.653C216.095 156.546 216.07 157.444 216.07 158.338C216.07 159.296 216.07 160.253 216.07 161.211C216.07 162.028 215.55 162.795 215.508 163.521C215.389 165.544 213.636 167.566 212.542 169.157C211.867 170.139 211.037 171.288 210.169 172.108C209.403 172.831 208.173 173.186 207.577 174.2C207.178 174.878 205.846 175.463 205.267 176.042C204.613 176.695 203.928 177.349 203.268 178.009C201.698 179.579 199.847 181.12 197.742 181.849C191.742 183.926 185.458 186.564 178.977 186.564C174.611 186.564 169.34 187.405 165.613 185.034C164.273 184.181 163.17 182.821 161.835 182.005C160.369 181.109 158.292 179.447 157.495 177.853C155.86 174.583 153.388 171.806 152.578 168.158C152.223 166.564 151.719 165.122 151.719 163.303C151.719 161.065 151.438 159.011 151.438 156.777C151.438 152.69 150.283 147.684 152.343 143.976C154.208 140.619 155.866 136.145 159.306 134.234C160.643 133.491 161.738 132.092 163.1 131.486C164.852 130.708 166.881 128.976 168.298 127.708C172.189 124.227 178.032 124.557 182.911 123.337" stroke="#292524" stroke-width="10" stroke-linecap="round"/>
<path d="M7.25999 130.162C5.86012 129.987 5.99041 126.114 5.50868 125.03C4.84599 123.539 4.9977 121.454 5.06067 119.817C5.12793 118.068 5.54864 116.285 6.44543 115.052C6.9019 114.424 6.43612 112.994 6.81198 112.201C7.25265 111.27 8.11767 110.082 8.33928 109.085C8.94413 106.363 12.0531 102.78 14.7743 101.571C16.2029 100.936 17.5951 99.4818 19.1933 99.0252C21.1796 98.4577 22.9915 97.8005 25.0582 97.2535C28.7403 96.2788 33.0961 96.8055 36.9508 96.8055C38.9911 96.8055 40.2205 97.2744 42.0011 97.9866C43.7788 98.6977 45.5224 100.767 47.3975 101.184C50.7269 101.924 54.0368 105.237 56.7243 107.252C57.4626 107.806 59.1187 110.696 59.3309 111.651C59.7287 113.441 60.3279 114.948 61.0618 116.599C61.7129 118.064 60.9235 120.228 61.5913 121.731C62.3515 123.442 61.8764 126.17 61.8764 128.044C61.8764 130.205 61.9962 132.403 61.8764 134.56C61.8199 135.576 60.2349 138.733 59.4938 139.326C58.1579 140.394 57.4413 142.225 56.1948 143.195C55.351 143.851 54.4028 144.641 53.6493 145.394C52.679 146.364 51.7579 146.518 50.5336 147.207C47.0888 149.144 42.103 151.422 38.0504 151.422C34.5616 151.422 30.5685 152.006 27.4204 150.607C26.4591 150.18 25.9223 149.956 24.8545 149.956C24.3699 149.956 22.7161 150.22 22.3701 149.874C21.9386 149.443 22.0232 148.644 21.4741 148.204C20.9281 147.768 20.5103 147.507 19.9061 147.023C14.8852 143.006 10.6714 137.774 8.35965 131.995" stroke="#292524" stroke-width="10" stroke-linecap="round"/>
</svg>
